<svg width="20" height="20" viewBox="0 0 20 20" fill="none" xmlns="http://www.w3.org/2000/svg">
<path d="M9.99984 2.88333C11.3532 2.88333 12.4498 3.98 12.4498 5.33333C12.4498 6.68667 11.3532 7.78333 9.99984 7.78333C8.6465 7.78333 7.54984 6.68667 7.54984 5.33333C7.54984 3.98 8.6465 2.88333 9.99984 2.88333ZM9.99984 13.3833C13.4648 13.3833 17.1165 15.0867 17.1165 15.8333V17.1167H2.88317V15.8333C2.88317 15.0867 6.53484 13.3833 9.99984 13.3833ZM9.99984 0.666668C7.4215 0.666668 5.33317 2.755 5.33317 5.33333C5.33317 7.91167 7.4215 10 9.99984 10C12.5782 10 14.6665 7.91167 14.6665 5.33333C14.6665 2.755 12.5782 0.666668 9.99984 0.666668ZM9.99984 11.1667C6.88484 11.1667 0.666504 12.73 0.666504 15.8333V19.3333H19.3332V15.8333C19.3332 12.73 13.1148 11.1667 9.99984 11.1667Z" fill="white"/>
</svg>
