<svg width="924" height="146" viewBox="0 0 924 146" fill="none" xmlns="http://www.w3.org/2000/svg">
<path d="M109.042 38.6172H114.26L129.133 23.7442L129.862 17.4272C102.181 -7.00862 59.9341 -4.36885 35.4983 23.3128C28.7089 30.9958 23.7888 40.1477 21.0977 50.0494C22.7514 49.3715 24.59 49.2585 26.3156 49.7412L56.0618 44.8315C56.0618 44.8315 57.5717 42.3252 58.3626 42.4793C71.5922 27.9452 93.8608 26.2504 109.145 38.6172H109.042Z" fill="#EA4335"/>
<path d="M150.323 50.0494C146.903 37.4566 139.887 26.1374 130.129 17.4888L109.258 38.3605C118.071 45.5607 123.093 56.4177 122.878 67.7985V71.5065C133.139 71.5065 141.459 79.8264 141.459 90.0875C141.459 100.349 133.139 108.669 122.878 108.669H85.7156L82.0076 112.428V134.717L85.7156 138.425H122.878C149.563 138.631 171.369 117.163 171.575 90.4779C171.698 74.2695 163.717 59.1088 150.323 50.0494V50.0494Z" fill="#4285F4"/>
<path d="M48.502 138.189H85.6642V108.443H48.502C45.852 108.443 43.243 107.867 40.8292 106.768L35.6113 108.391L20.6355 123.264L19.3311 128.482C27.7228 134.83 37.9738 138.24 48.502 138.189Z" fill="#34A853"/>
<path d="M48.502 41.6987C21.8065 41.8527 0.308299 63.618 0.462371 90.3135C0.554814 105.217 7.5086 119.248 19.3311 128.328L40.8806 106.779C31.5336 102.557 27.3736 91.5461 31.5952 82.1991C35.8168 72.852 46.8278 68.6921 56.1748 72.9137C60.2937 74.7728 63.5908 78.0802 65.4602 82.1991L87.0097 60.6495C77.8476 48.6525 63.5908 41.637 48.502 41.6987V41.6987Z" fill="#FBBC05"/>
<path d="M270.509 117.42C257.578 117.584 245.149 112.479 236.069 103.276C226.691 94.4632 221.453 82.1169 221.617 69.2468C221.463 56.3766 226.702 44.0406 236.069 35.2174C245.108 25.9217 257.547 20.7141 270.509 20.8168C282.856 20.6524 294.76 25.4492 303.542 34.1286L294.257 43.5784C287.899 37.4257 279.353 34.0567 270.509 34.18C261.234 34.067 252.329 37.8571 245.981 44.6158C239.387 51.1587 235.751 60.1154 235.905 69.4008C235.823 78.5835 239.459 87.4067 245.981 93.8777C259.416 107.272 281.079 107.529 294.832 94.4529C298.931 89.9746 301.437 84.2636 301.981 78.224H270.664V64.8711H314.975C315.406 67.5622 315.581 70.2842 315.498 73.0164C316.053 84.4074 311.924 95.5314 304.066 103.81C295.325 112.9 283.123 117.851 270.509 117.42ZM373.532 108.545C361.176 120.388 341.68 120.388 329.324 108.545C323.336 102.742 320.069 94.6994 320.295 86.3693C320.069 78.0391 323.346 69.9966 329.324 64.1932C341.691 52.381 361.165 52.381 373.532 64.1932C379.51 69.9966 382.787 78.0391 382.561 86.3693C382.777 94.7097 379.479 102.752 373.481 108.545H373.532ZM339.082 99.8352C345.46 106.655 356.163 107.005 362.983 100.616C363.25 100.359 363.518 100.102 363.764 99.8352C367.246 96.2299 369.126 91.3818 368.982 86.3693C369.136 81.3465 367.256 76.4676 363.764 72.852C357.201 66.0112 346.333 65.775 339.482 72.3385C339.308 72.5028 339.133 72.6774 338.969 72.852C335.476 76.4676 333.597 81.3465 333.751 86.3693C333.617 91.3818 335.518 96.2402 339.02 99.8352H339.082ZM441.478 108.545C429.121 120.388 409.626 120.388 397.27 108.545C391.281 102.742 388.015 94.6994 388.241 86.3693C388.015 78.0391 391.292 69.9966 397.27 64.1932C409.626 52.3502 429.121 52.3502 441.478 64.1932C447.456 69.9966 450.733 78.0391 450.507 86.3693C450.743 94.6994 447.466 102.742 441.478 108.545ZM407.038 99.8352C413.416 106.655 424.119 107.005 430.939 100.616C431.207 100.359 431.474 100.102 431.72 99.8352C435.202 96.2299 437.082 91.3818 436.938 86.3693C437.092 81.3465 435.212 76.4676 431.72 72.852C425.157 66.0112 414.289 65.775 407.449 72.3385C407.274 72.5028 407.099 72.6774 406.935 72.852C403.443 76.4676 401.563 81.3465 401.717 86.3693C401.584 91.3818 403.484 96.2402 406.986 99.8352H407.038ZM486.149 145.286C479.893 145.482 473.761 143.53 468.769 139.75C464.339 136.419 460.85 131.995 458.642 126.911L470.536 121.95C471.83 124.99 473.854 127.661 476.432 129.725C479.185 131.944 482.646 133.115 486.19 133.012C490.73 133.289 495.167 131.574 498.351 128.318C501.494 124.528 503.045 119.659 502.686 114.749V110.261H502.213C498.176 115.047 492.127 117.656 485.882 117.307C477.962 117.327 470.392 114.041 465.01 108.227C459.176 102.465 455.95 94.5659 456.084 86.359C455.94 78.111 459.165 70.1609 465.01 64.337C470.382 58.5028 477.952 55.1851 485.882 55.2057C489.199 55.1954 492.486 55.9349 495.485 57.3421C498.084 58.472 500.395 60.1668 502.275 62.3032H502.747V57.3421H515.689V112.921C516.378 121.806 513.378 130.588 507.39 137.192C501.689 142.647 494.037 145.564 486.149 145.286V145.286ZM487.094 105.207C491.603 105.31 495.927 103.389 498.885 99.9892C502.1 96.3018 503.805 91.5256 503.631 86.6261C503.826 81.6444 502.131 76.786 498.885 73.0061C495.927 69.596 491.603 67.6855 487.094 67.7882C482.461 67.6958 478.014 69.596 474.881 73.0061C471.43 76.6525 469.55 81.5109 469.663 86.5234C469.56 91.4947 471.43 96.3018 474.881 99.8865C477.993 103.327 482.441 105.269 487.094 105.207ZM538.708 24.3194V115.54H525.088V24.3194H538.708ZM576.075 117.42C567.827 117.636 559.867 114.4 554.105 108.494C548.26 102.639 545.066 94.6378 545.281 86.3693C544.973 78.0802 548.044 70.0171 553.786 64.0288C559.21 58.3179 566.79 55.1543 574.658 55.3084C578.243 55.2673 581.786 55.9657 585.094 57.3421C588.072 58.5439 590.784 60.3208 593.075 62.56C595.047 64.4602 596.793 66.5762 598.292 68.877C599.504 70.8183 600.532 72.8623 601.374 74.9782L602.781 78.5322L561.038 95.706C563.626 101.643 569.594 105.382 576.065 105.104C582.32 105.125 588.124 101.848 591.359 96.497L601.795 103.543C599.133 107.358 595.722 110.59 591.77 113.044C587.086 116.002 581.622 117.523 576.075 117.42ZM558.645 85.4243L586.408 73.8895C585.556 71.8557 584.025 70.1815 582.074 69.144C579.896 67.9115 577.431 67.2849 574.925 67.3157C570.683 67.4287 566.646 69.2057 563.708 72.2768C560.144 75.687 558.285 80.5043 558.645 85.4243Z" fill="#5F6368"/>
<path d="M674.137 117.42C650.389 117.831 630.812 98.9107 630.401 75.1631C630.391 74.5879 630.391 74.0024 630.411 73.4272C629.857 49.6796 648.664 29.9892 672.401 29.4345C672.976 29.4243 673.562 29.4243 674.137 29.4243C686.011 29.0545 697.412 34.1286 705.085 43.1983L697.566 50.5013C691.927 43.4037 683.237 39.4287 674.188 39.7985C665.509 39.6033 657.117 42.9621 650.965 49.0839C644.565 55.5241 641.145 64.337 641.515 73.4067C641.135 82.4764 644.565 91.2893 650.965 97.7295C657.117 103.862 665.509 107.21 674.188 107.015C684.295 107.128 693.899 102.629 700.278 94.8022L707.797 102.321C703.863 107.025 698.922 110.785 693.345 113.332C687.326 116.126 680.762 117.523 674.137 117.42Z" fill="#5F6368"/>
<path d="M727.99 115.54H717.185V31.2526H727.99V115.54Z" fill="#5F6368"/>
<path d="M745.637 64.8095C757.418 53.1103 776.441 53.1103 788.222 64.8095C793.81 70.7156 796.819 78.604 796.573 86.7288C796.819 94.8535 793.81 102.742 788.222 108.648C776.441 120.347 757.418 120.347 745.637 108.648C740.049 102.742 737.039 94.8535 737.286 86.7288C737.039 78.604 740.039 70.7156 745.637 64.8095ZM753.669 101.869C760.582 109.172 772.106 109.49 779.42 102.578C779.666 102.352 779.902 102.105 780.128 101.869C783.939 97.7809 785.952 92.3267 785.716 86.7391C785.962 81.1514 783.949 75.6972 780.128 71.6092C773.216 64.3062 761.691 63.9878 754.378 70.9005C754.131 71.1264 753.895 71.3729 753.669 71.6092C749.858 75.6972 747.845 81.1514 748.081 86.7391C747.866 92.3165 749.899 97.7501 753.72 101.818L753.669 101.869Z" fill="#5F6368"/>
<path d="M856.425 115.54H845.989V107.559H845.681C843.822 110.589 841.192 113.075 838.059 114.76C834.814 116.639 831.116 117.636 827.356 117.625C821.173 118.046 815.144 115.622 810.973 111.052C807.019 106.049 805.037 99.7735 805.386 93.4155V57.9276H816.191V91.4331C816.191 102.187 820.937 107.559 830.438 107.559C834.721 107.693 838.799 105.752 841.398 102.341C844.202 98.7977 845.691 94.3913 845.629 89.8718V57.9276H856.435V115.54H856.425Z" fill="#5F6368"/>
<path d="M893.114 117.42C885.698 117.44 878.642 114.225 873.804 108.597C868.391 102.619 865.494 94.7919 865.71 86.7288C865.494 78.6657 868.391 70.8388 873.804 64.8608C878.642 59.2423 885.698 56.0171 893.114 56.0376C897.223 55.976 901.28 56.9415 904.906 58.852C908.1 60.4544 910.802 62.8887 912.733 65.8982H913.205L912.733 57.9173V31.2526H923.538V115.54H913.103V107.559H912.63C910.699 110.569 907.998 113.003 904.803 114.606C901.208 116.495 897.192 117.471 893.114 117.42V117.42ZM894.891 107.559C899.832 107.631 904.567 105.577 907.885 101.92C911.552 97.7398 913.431 92.2856 913.103 86.7288C913.431 81.1822 911.552 75.7178 907.885 71.5373C901.332 64.3267 890.177 63.8029 882.966 70.3663C882.555 70.7361 882.165 71.1367 881.795 71.5373C878.118 75.687 876.238 81.1308 876.577 86.6672C876.238 92.2035 878.118 97.6473 881.795 101.797C885.123 105.536 889.899 107.631 894.891 107.559Z" fill="#5F6368"/>
</svg>
