<svg width="1439" height="687" viewBox="0 0 1439 687" fill="none" xmlns="http://www.w3.org/2000/svg">
<path d="M577.255 257.868L584.792 255.032L593.488 242.55V234.04L602.184 228.934L613.778 220.992L625.953 226.098L643.925 215.318L656.099 213.616L670.013 215.318L682.187 210.212L687.405 220.992L682.187 226.098L695.521 234.04H703.057L711.753 242.55L723.348 246.522L729.145 242.55V234.04H741.899L756.973 242.55H772.046H785.959L793.496 257.868L796.974 266.379L803.351 278.293L807.989 289.639V298.717L816.105 305.525L820.743 319.141L830.019 325.381L838.135 335.026L841.614 344.104L847.991 348.075L858.426 350.344L878.137 344.104V358.287L869.441 372.47L861.325 384.952L850.31 395.164L838.135 408.78L827.7 420.127L820.743 432.608L824.222 447.926L830.019 455.301V467.783V479.129L824.222 488.774L813.207 491.611L807.989 498.986L800.453 507.496L803.351 521.68L800.453 527.92L792.336 533.594L788.278 538.7V544.373L786.539 551.181L772.625 567.634L759.871 576.144L748.856 581.25L743.059 576.144L735.522 581.25H725.667L721.609 576.144V567.634L716.971 557.422L707.695 546.642V538.7L704.217 521.68L698.999 507.496L691.463 496.15V485.937L695.521 476.293L698.999 464.946V455.301V447.926L695.521 439.416L691.463 426.935L687.405 422.396L682.187 414.453V405.376V391.76V384.952L674.071 378.711H663.056L658.418 372.47L650.881 368.499L641.026 372.47L628.851 375.874H613.778L598.705 378.711L588.85 375.874L574.356 364.528L570.298 358.287L565.081 350.344L560.443 344.104L557.544 340.132V332.757L553.486 327.083L557.544 320.275V308.361V302.688V295.88V287.937L565.081 278.293L570.298 266.379L577.255 257.868Z" stroke="#836F05" stroke-width="3" stroke-dasharray="2 2"/>
<path d="M867.122 471.754L856.107 483.668L845.092 489.909V504.66L839.874 515.439V526.786L845.092 533.026H856.107L862.484 526.786V515.439L870.02 497.284L873.499 483.668V471.754L870.02 466.081L867.122 471.754Z" stroke="#836F05" stroke-width="3" stroke-dasharray="2 2"/>
<path d="M1276.99 623.8L1281.05 614.155H1290.33L1294.97 617.559L1290.33 623.8L1281.05 627.204L1276.99 623.8Z" stroke="#574A00" stroke-opacity="0.38" stroke-width="3" stroke-dasharray="2 2"/>
<path d="M1220.76 569.336L1206.27 575.577H1187.13L1179.02 580.115L1170.32 584.654L1166.26 580.115V575.577L1170.32 563.095V546.075V528.488L1176.12 518.276L1196.99 506.362H1206.27L1220.76 492.178L1224.82 487.072L1232.35 479.13L1244.53 475.158L1252.64 479.13L1256.7 473.456L1264.24 468.35L1278.15 464.379C1290.67 462.563 1289.55 467.783 1287.43 470.619L1281.05 479.13L1287.43 483.668L1302.5 492.178L1312.94 479.13V470.619L1319.31 461.542L1322.21 470.619L1329.75 479.13V494.448L1334.97 501.256L1343.66 518.276L1352.36 528.488V538.7L1347.72 557.422L1339.02 569.336L1329.75 575.577L1322.21 589.76L1312.94 597.135H1304.24L1300.18 601.107L1294.39 604.511L1287.43 601.107H1278.15L1271.2 597.135V589.76L1268.3 584.654L1262.5 575.577L1256.7 580.115L1249.75 569.336L1242.21 566.499H1235.83L1220.76 569.336Z" stroke="#574A00" stroke-opacity="0.38" stroke-width="3" stroke-dasharray="2 2"/>
<path d="M1372.65 642.522H1359.9C1359.9 638.437 1364.53 633.256 1366.85 631.175L1381.35 623.8L1394.1 619.829L1405.11 612.453V619.829L1398.16 623.8L1394.1 631.175H1388.3L1381.35 637.983L1372.65 642.522Z" stroke="#574A00" stroke-opacity="0.38" stroke-width="3" stroke-dasharray="2 2"/>
<path d="M1421.35 616.425H1413.81L1416.71 608.482V602.241L1424.83 598.837L1428.3 586.923L1431.78 595.433L1437 602.241L1428.3 608.482L1421.35 616.425Z" stroke="#574A00" stroke-opacity="0.38" stroke-width="3" stroke-dasharray="2 2"/>
<path d="M378.406 682.236L362.754 673.726H351.739L336.666 667.485L329.129 655.571L319.274 641.955L323.332 636.849V629.474L319.274 622.098L311.157 611.886V601.674L308.259 574.442L304.201 550.046V527.353V506.362L292.606 493.313L278.113 484.236L268.837 471.754L259.561 457.003L251.445 438.281L245.068 435.445V422.396L251.445 417.29L245.068 409.915L251.445 398L259.561 385.519L263.619 379.846V371.903L259.561 358.287V354.316L263.619 358.287L268.837 354.316L274.634 347.508H281.011L286.809 340.132H292.606L295.505 350.344L292.606 358.287L286.809 350.344L299.563 342.969H308.259L313.476 347.508L322.752 350.344L333.767 347.508L340.724 350.344L354.058 366.23L359.855 371.903H369.131L382.465 375.874L388.262 385.519L392.32 394.029V400.837L399.277 404.808L405.654 409.915H413.77L417.828 412.751L425.945 417.29H438.119L447.974 422.396L458.989 428.637L465.366 431.473V438.281V447.926L456.091 462.677L447.974 471.754V484.236V501.823L438.119 518.276L430.003 521.112L417.828 527.353L409.132 535.296V543.238L405.654 558.557L395.798 574.442L388.262 581.25H381.305H374.928L378.406 587.491V596.568L370.87 601.674H362.754V611.886H351.739V618.127L356.377 622.098L351.739 632.31V636.849V641.955L356.377 648.763V655.571L351.739 662.379L356.377 667.485L351.739 682.236H359.855L366.812 685.072L378.406 682.236Z" stroke="#574A00" stroke-opacity="0.38" stroke-width="3" stroke-dasharray="2 2"/>
<path d="M1348.3 445.657L1361.05 457.571L1357 461.542L1348.3 457.571L1338.45 449.061L1332.65 445.657H1326.27L1322.21 451.897L1310.62 449.061L1304.24 445.657H1298.44L1304.24 437.147L1298.44 432.041L1282.21 425.8L1273.51 422.963V417.29L1267.72 407.645H1282.21V412.184L1288.59 422.963L1294.39 417.29L1304.24 412.184L1314.68 417.29L1332.65 422.963L1344.82 432.041L1348.3 445.657Z" stroke="#574A00" stroke-opacity="0.38" stroke-width="3" stroke-dasharray="2 2"/>
<path d="M1184.24 381.548L1172.64 390.058L1161.05 395.731L1163.37 408.78L1169.16 417.857L1184.24 423.531H1195.83V417.857L1204.53 405.943L1208.01 401.404V393.462L1204.53 386.654L1208.01 377.009L1204.53 371.336H1195.83L1184.24 381.548Z" stroke="#574A00" stroke-opacity="0.38" stroke-width="3" stroke-dasharray="2 2"/>
<path d="M1175.54 437.147L1188.29 444.522L1181.92 447.926L1169.16 444.522H1159.31H1147.71L1144.81 437.147H1154.67H1164.53H1175.54Z" stroke="#574A00" stroke-opacity="0.38" stroke-width="3" stroke-dasharray="2 2"/>
<path d="M1145.39 419.559V428.069C1145.39 434.877 1137.28 433.932 1133.22 432.608L1125.1 424.098L1117.57 408.213L1105.97 391.76L1096.12 382.682V374.74L1115.25 382.682L1121.04 391.76L1133.22 400.27V405.943L1145.39 419.559Z" stroke="#574A00" stroke-opacity="0.38" stroke-width="3" stroke-dasharray="2 2"/>
<path d="M1208.01 323.112L1210.9 311.766C1212.06 307.227 1215.64 309.874 1217.28 311.766V323.112L1223.66 328.218L1230.61 338.998L1240.47 350.344L1244.53 361.124V373.605H1236.41L1230.61 367.364L1223.66 353.181L1217.28 338.998L1208.01 323.112Z" stroke="#574A00" stroke-opacity="0.38" stroke-width="3" stroke-dasharray="2 2"/>
<path d="M1122.78 387.221L1117.57 371.903L1107.71 357.152V339.565L1114.67 346.373V353.748L1117.57 359.989L1122.78 366.23L1132.64 371.903L1136.7 381.548V395.164H1132.64L1122.78 387.221Z" stroke="#574A00" stroke-opacity="0.38"/>
<path d="M1072.93 297.582L1067.71 287.937L1049.74 290.774L1045.68 302.121L1036.4 308.361L1019.01 324.247L1016.11 333.324V350.912C1014.72 361.804 1007.03 359.989 1003.36 357.72L992.924 337.296L980.17 308.361V294.178H972.633H964.517V285.101H955.821L945.965 271.485L939.588 276.591L923.356 271.485H908.862L900.166 264.677L879.876 262.407L870.6 251.628L864.223 246.522L860.165 251.628L867.122 259.571L870.6 271.485H879.876L886.253 279.427L896.688 271.485L902.485 276.591L914.66 285.101V294.178L905.384 308.361L893.21 314.035L879.876 321.41L867.122 328.218L857.266 337.296H845.092L839.294 328.218V318.006L832.917 308.361L821.902 297.582V287.937L804.51 268.081L799.293 254.464L792.916 259.571L785.959 240.848H796.394L799.293 227.232V214.751L789.437 218.155L776.683 214.751H762.77L755.233 200V194.894H748.276L741.319 200L744.798 207.943L741.319 214.751L733.203 210.78L736.102 205.106L726.246 200L722.188 185.25L711.753 179.009L696.68 168.797C690.187 162.896 692.042 169.364 693.781 173.335L701.318 181.846C707.308 186.195 718.362 194.894 714.652 194.894C710.941 194.894 711.173 203.593 711.753 207.943L701.318 194.894L685.085 181.846L676.969 176.172L662.476 181.846H654.359L649.142 190.923L636.967 200V210.78L622.474 214.751H609.14L598.705 207.943L602.763 181.846H626.532L631.75 176.172V164.258L622.474 154.046L636.967 151.209L649.142 144.401L665.374 131.92H671.751L676.969 126.814V116.035L683.346 110.929V118.304L690.883 116.035V108.092L685.085 104.12L676.969 108.092L668.273 104.12V89.3698L693.781 70.6477L711.753 57.599L726.246 49.6563H751.175L766.248 57.599L789.437 60.4356C796.858 66.3359 792.529 69.7021 789.437 70.6477H780.162L766.248 66.109L780.162 77.4557H789.437L796.394 70.6477L804.51 66.109L807.989 60.4356L817.844 66.109L832.917 60.4356H852.628L872.919 57.599H885.673L878.716 49.6563L881.615 43.9829H893.789L901.906 49.6563L914.08 43.9829L923.356 38.3095H936.11V32.0688L955.241 27.5302H967.415L973.793 22.9915H984.807L995.822 27.5302H1012.05L1016.11 32.0688L1012.05 38.3095L1033.51 41.1462H1038.14H1048.58H1058.43H1076.99L1097.86 49.6563H1110.03H1119.89L1122.78 41.1462L1141.92 43.9829L1164.52 49.6563H1184.24H1197.57L1212.64 57.599H1241.05L1246.27 54.1949H1260.18L1281.63 57.599L1300.76 63.2723L1312.94 67.811H1326.27L1334.39 76.321H1317.57L1308.88 70.6477L1300.76 76.321L1312.94 81.9944V88.2351L1300.76 96.7451H1288.59C1276.53 99.9222 1278.93 105.255 1281.63 107.525L1291.49 111.496L1294.39 126.247V141.565H1288.59L1273.51 126.247L1263.66 111.496L1268.3 92.7738L1263.66 88.2351L1256.7 92.7738H1249.17H1241.05V102.418H1227.14H1206.27L1197.57 107.525L1191.77 121.141L1201.05 126.247H1210.32L1223.08 131.353H1230.03L1241.05 141.565L1249.17 149.507V155.748L1252.64 167.095L1246.27 163.691L1241.05 155.748L1232.93 144.401H1230.03L1232.93 155.748V167.095L1227.14 180.711H1217.86L1212.64 185.25L1210.32 192.058V197.164L1212.64 202.837L1223.08 210.212L1227.14 218.155L1223.08 224.396H1212.64L1210.32 214.184L1197.57 205.674L1191.77 197.164C1184.35 201.248 1181.72 198.866 1181.34 197.164L1174.38 192.058L1164.52 202.837L1174.38 210.212H1181.34L1191.77 214.184L1178.44 222.694L1191.77 234.608L1197.57 243.118L1201.05 255.032L1197.57 270.35L1191.77 281.697L1178.44 287.937L1164.52 290.774L1156.99 297.582L1149.45 290.774L1141.92 295.88L1138.44 304.957L1149.45 318.006L1156.99 330.488V344.671L1149.45 350.912L1144.23 357.72H1138.44V350.912L1128.58 344.671L1116.99 337.296H1112.93V344.671L1107.13 337.296L1102.49 324.247L1097.86 318.006L1092.06 321.41H1086.26V314.035L1082.2 304.957L1072.93 297.582Z" stroke="#574A00" stroke-opacity="0.38" stroke-width="3" stroke-dasharray="2 2"/>
<path d="M1236.99 238.579L1234.09 230.636L1235.83 225.53L1241.05 220.424H1248.01L1256.12 215.318L1264.24 206.241L1260.76 198.866L1254.38 186.952V179.576V171.066L1261.92 176.172L1272.36 179.576L1269.46 185.25H1261.92V193.76H1267.14L1272.36 201.702V207.943L1274.67 215.318V224.396H1264.24L1257.86 230.636L1250.91 229.502H1245.69L1241.05 227.232L1238.15 229.502L1242.79 234.608L1241.05 241.416L1236.99 238.579Z" stroke="#574A00" stroke-opacity="0.38" stroke-width="3" stroke-dasharray="2 2"/>
<path d="M872.919 217.588L859.005 208.51V194.894L844.512 180.711V172.768L859.005 159.719L870.02 168.229L865.382 172.768H859.005V180.711L870.02 185.817H877.557L881.615 192.058L872.919 194.894L877.557 202.837L881.615 211.347L872.919 217.588Z" stroke="#574A00" stroke-opacity="0.38" stroke-width="3" stroke-dasharray="2 2"/>
<path d="M783.06 189.221L769.726 193.76L761.61 182.413L765.089 172.201L776.683 163.123L783.06 172.201H792.336V163.123H803.351V172.201L813.207 178.441L822.482 189.221L813.207 193.76L798.713 189.221H783.06Z" stroke="#574A00" stroke-opacity="0.38" stroke-width="3" stroke-dasharray="2 2"/>
<path d="M635.228 119.439L645.084 133.622L649.142 137.026L645.084 142.132L631.17 146.103H620.155L623.634 137.026V133.622L631.17 125.679L623.634 119.439V114.332V108.659H631.17L635.228 119.439Z" stroke="#574A00" stroke-opacity="0.38" stroke-width="3" stroke-dasharray="2 2"/>
<path d="M603.343 127.381L612.619 123.41C620.039 120.233 618.416 124.734 616.677 127.381L612.619 135.891L603.343 140.43V127.381Z" stroke="#574A00" stroke-opacity="0.38" stroke-width="3" stroke-dasharray="2 2"/>
<path d="M562.762 76.321L575.516 72.3497H590.009L596.386 76.321L583.632 83.6964H569.718L562.762 76.321Z" stroke="#574A00" stroke-opacity="0.38" stroke-width="3" stroke-dasharray="2 2"/>
<path d="M456.671 71.7823L462.468 62.7049C470.352 59.5278 470.391 53.0602 469.425 50.2235L462.468 37.7421L449.714 27.5301H439.858L430.003 23.5588V17.3181H449.714L462.468 11.0774L480.44 7.67335L508.847 11.0774L526.239 4.83667H559.863H583.632L597.546 11.0774L588.85 23.5588L583.632 33.2035L572.617 37.7421L563.921 42.8482L572.617 50.2235L563.921 54.7622L547.689 59.8682L536.094 62.7049L526.239 66.6763L508.847 71.7823L492.614 80.2923L480.44 96.7451H469.425L456.671 87.6677V71.7823Z" stroke="#574A00" stroke-opacity="0.38" stroke-width="3" stroke-dasharray="2 2"/>
<path d="M394.059 13.9141L383.044 23.5588L396.958 28.6648L407.973 23.5588L421.886 19.0201L447.395 13.9141L464.207 2L434.061 5.40402H413.77V13.9141H407.973H394.059Z" stroke="#574A00" stroke-opacity="0.38" stroke-width="3" stroke-dasharray="2 2"/>
<path d="M366.812 38.8768H355.217L343.623 45.1175L355.217 51.9255H366.812H380.146L390.581 64.4069V68.3783H380.146L373.189 76.321L380.146 84.831L394.059 88.8024L402.755 80.8597V72.3496H407.393C420.379 75.5267 420.147 71.0258 418.408 68.3783L411.451 59.3009L402.755 49.0888L394.059 45.1175H387.103L380.146 41.7135L366.812 38.8768Z" stroke="#574A00" stroke-opacity="0.38" stroke-width="3" stroke-dasharray="3 3"/>
<path d="M243.329 34.9055L234.633 38.8768L224.197 42.8482L227.676 49.0889L234.633 42.8482H246.227L250.865 49.0889L243.329 58.1662H253.764H260.721H269.996L280.432 55.8969L292.606 54.1949V49.0889V42.8482H288.548H283.33L278.113 38.8768L272.315 42.8482L264.779 38.8768L253.764 34.9055H243.329Z" stroke="#574A00" stroke-opacity="0.38" stroke-width="3" stroke-dasharray="2 2"/>
<path d="M407.393 148.94L418.408 155.748L407.393 159.152H396.378L391.161 155.748L396.378 151.777L407.393 142.132V148.94Z" stroke="#574A00" stroke-opacity="0.38" stroke-width="3" stroke-dasharray="3 3"/>
<path d="M295.505 206.808L315.795 191.49L328.549 187.519L336.666 177.874L350.579 170.499H355.797V177.874H364.493L377.827 170.499L364.493 164.825L369.131 152.911H359.275L364.493 143.834H380.725H393.48L406.234 137.593L414.93 129.651L406.234 126.814L399.857 117.737L396.378 98.4471L380.725 106.957L374.928 98.4471V92.2064L355.797 86.5331L345.941 92.2064L340.144 104.12V112.063L328.549 122.275L318.694 126.814V134.189L309.998 140.997L304.201 134.189L307.679 120.573L295.505 117.737L287.968 112.063L276.373 104.12L283.91 92.2064L299.563 86.5331L309.998 80.8597L323.332 76.8884L331.448 72.3497L345.941 76.8884L342.463 84.2637L328.549 80.8597L336.666 67.811H350.579L359.275 61.5703V55.3296H350.579L336.666 61.5703L331.448 55.3296L328.549 46.2522L318.694 50.2236V55.3296L309.998 61.5703V55.3296H304.201V61.5703H295.505L283.91 64.407L276.373 61.5703L262.46 64.407V67.811L246.807 64.407L230.574 55.3296H212.023H196.95L173.181 61.5703L156.948 55.3296L116.947 50.2236H100.134L77.5248 55.3296L69.9883 58.7336C66.3166 58.7336 59.669 60.5491 62.4517 67.811L53.176 72.3497H41.5813C40.4219 74.0517 39.6103 78.1365 45.6395 80.8597L36.9435 86.5331H26.5083L21.2907 95.6104L13.7541 98.4471L21.2907 104.12L1 120.573L36.9435 106.957L56.6544 98.4471H62.4517L81.0032 92.2064L97.2357 98.4471L109.41 106.957L115.207 114.333C113.275 121.141 109.41 136.572 109.41 143.834C119.845 143.834 126.802 154.613 121.005 156.883C116.367 158.698 105.159 171.633 100.134 177.874L86.8005 195.462L90.8587 224.963L100.134 237.444V248.224L104.193 264.109L109.41 276.023L115.207 282.831V264.109L109.41 253.33V244.82H115.207V257.869L124.483 272.052L135.498 289.072V302.121L161.006 318.006H184.196L192.892 328.218L207.965 333.892H213.762L218.98 343.536L229.415 356.585L243.908 363.96L254.923 356.585H243.908L232.314 343.536V321.977H218.98L213.762 318.006L218.98 299.284C221.105 296.258 222.458 291.114 210.864 294.745L202.747 305.525L189.413 310.063L180.138 302.121L173.761 289.072L180.138 268.081L184.196 257.869L202.747 248.224L218.98 253.33L232.314 244.82L241.01 248.224L251.445 253.33V268.081L254.923 272.052L262.46 268.081V257.869L257.822 244.82L268.837 237.444L278.113 230.069L292.606 224.963V212.482L295.505 206.808Z" stroke="#574A00" stroke-opacity="0.38" stroke-width="3" stroke-dasharray="2 2"/>
<path d="M299.563 309.496H283.33L287.968 300.419H293.765L309.998 303.823L299.563 309.496Z" stroke="#574A00" stroke-opacity="0.38" stroke-width="3" stroke-dasharray="2 2"/>
<path d="M259.561 283.966H240.43L245.647 287.937L255.503 293.043L264.199 299.284L282.171 296.447L276.373 293.043L259.561 283.966Z" stroke="#574A00" stroke-opacity="0.38" stroke-width="3" stroke-dasharray="2 2"/>
<path d="M251.445 164.825H267.677L257.242 173.335L251.445 185.817L254.343 190.923L261.3 185.817L267.677 170.499H278.113V179.576L290.287 173.335V164.825H283.91L278.113 161.421L272.315 155.181H257.242L251.445 164.825Z" stroke="#574A00" stroke-opacity="0.38" stroke-width="3" stroke-dasharray="2 2"/>
<path d="M352.898 30.9341L381.305 36.0402L387.682 30.9341H370.87L360.435 25.8281L352.898 30.9341Z" stroke="#574A00" stroke-opacity="0.38" stroke-width="3" stroke-dasharray="2 2"/>
<path d="M384.204 8.80801L380.146 16.7507H372.029L363.913 13.914L372.029 8.80801H384.204Z" stroke="#574A00" stroke-opacity="0.38" stroke-width="3" stroke-dasharray="2 2"/>
<path d="M704.217 120.006L709.434 110.361L712.913 103.553L715.811 98.4471L709.434 91.6391V85.3984L721.609 81.4271L729.145 70.0804L737.262 76.321L726.247 85.3984L729.145 95.6105H748.856L756.393 98.4471L748.856 103.553H737.262V110.361H729.145V120.006L721.609 125.112H715.811L704.217 129.083L698.419 125.112H686.245L693.782 120.006H704.217Z" stroke="#574A00" stroke-opacity="0.38" stroke-width="3" stroke-dasharray="2 2"/>
<path d="M1208.01 418.992L1213.22 405.943C1210.44 401.858 1214.38 397.811 1216.7 396.298C1216.7 393.575 1231.77 395.164 1239.31 396.298C1239.31 405.376 1228.49 402.35 1223.08 399.702L1219.02 403.674L1220.76 409.347H1229.46L1223.08 414.453L1226.56 422.396L1223.08 426.367L1219.02 418.992L1216.7 422.396V432.608L1208.01 430.906V418.992Z" stroke="#574A00" stroke-opacity="0.38" stroke-width="3" stroke-dasharray="2 2"/>
<path d="M667 348.408C663.13 348.408 660 351.471 660 355.259C660 360.396 667 367.981 667 367.981C667 367.981 674 360.396 674 355.259C674 351.471 670.87 348.408 667 348.408ZM667 357.705C665.62 357.705 664.5 356.609 664.5 355.259C664.5 353.908 665.62 352.812 667 352.812C668.38 352.812 669.5 353.908 669.5 355.259C669.5 356.609 668.38 357.705 667 357.705Z" fill="#FFA500"/>
</svg>
