<svg width="82" height="85" viewBox="0 0 82 85" fill="none" xmlns="http://www.w3.org/2000/svg">
<path fill-rule="evenodd" clip-rule="evenodd" d="M76.1545 42.1325C76.1545 42.1325 82.2087 36.625 81.8968 30.4564L81.5299 29.9975C80.3809 30.7164 79.0507 31.0922 77.6956 31.0806L76.7599 31.6498C76.7599 31.6498 75.971 31.0072 74.6134 32.072C74.6134 32.072 73.4576 30.2361 72.1917 30.7869L73.0357 29.9241C73.0357 29.9241 72.5403 28.2167 68.5225 26.2523C67.7423 25.1999 67.1239 24.0366 66.6879 22.8009L65.1102 21.8095C65.1102 21.8095 64.8717 20.3408 64.6882 18.7436C64.6882 18.7436 63.8259 17.6054 62.8536 17.532C62.717 16.8668 62.6372 16.1912 62.6151 15.5125C62.6151 15.5125 61.8262 15.5125 60.6704 12.9423C60.1778 12.0373 59.6069 11.1773 58.9642 10.3721L58.3955 9.28893L58.7074 8.84832C58.7074 8.84832 59.9916 10.9963 60.9089 11.3635C61.2915 10.7527 61.4944 10.0465 61.4944 9.32565C61.4944 8.60483 61.2915 7.89859 60.9089 7.28784C60.3765 7.46941 59.8116 7.53548 59.2517 7.48167C58.6918 7.42786 58.1498 7.2554 57.6617 6.97574C56.7623 7.15302 55.8958 7.46887 55.0932 7.91203C54.803 7.70656 54.4645 7.57994 54.1108 7.54454C53.7571 7.50914 53.4003 7.56618 53.0752 7.71008C53.0752 7.71008 53.4971 6.70036 49.5344 6.88394L50.6718 6.60857L48.3052 6.16796C48.3766 6.07262 48.4153 5.95667 48.4153 5.8375C48.4153 5.71833 48.3766 5.60238 48.3052 5.50704C47.6313 5.1913 46.8615 5.14875 46.157 5.3883C45.4525 5.62786 44.868 6.13094 44.5259 6.79215C44.5259 6.79215 45.5349 7.80188 43.9572 8.38935C42.8586 7.68417 41.592 7.28493 40.2879 7.23276C39.8763 6.85666 39.6046 6.35172 39.5174 5.80078C38.7248 5.37408 37.7986 5.2689 36.9306 5.50704C36.9306 5.50704 36.1417 4.22194 35.096 4.64419C35.096 4.64419 33.4999 3.76298 35.4629 2.80833C35.5803 2.51187 35.5833 2.18233 35.4715 1.88376C35.3596 1.58518 35.1407 1.3389 34.8575 1.19277C34.8575 1.19277 35.4996 1.19276 35.5914 0.201397C35.1807 0.023291 34.7291 -0.038371 34.2858 0.0231499C33.8425 0.0846708 33.4246 0.267009 33.0779 0.550216C32.5913 0.294522 32.0498 0.160932 31.5002 0.160932C30.9505 0.160932 30.4091 0.294522 29.9224 0.550216C28.9893 0.21311 27.9957 0.0764772 27.0063 0.14923C26.0169 0.221982 25.054 0.502487 24.1801 0.972464H22.9142C22.21 1.43802 21.3627 1.63651 20.5251 1.53217C19.6875 1.42782 18.9147 1.02749 18.3461 0.403343C17.6222 0.754387 17.0631 1.37318 16.7866 2.12905C15.7745 2.82595 14.6689 3.37604 13.5027 3.76298C13.1029 4.14053 12.7844 4.59581 12.5668 5.10091C12.3491 5.60601 12.2368 6.15029 12.2368 6.70036C11.2686 7.78306 9.98523 8.53436 8.56761 8.84832C7.93767 9.3065 7.46373 9.94741 7.21 10.6842C7.21 10.6842 5.85239 10.6842 5.06351 12.9056C3.72829 13.9121 2.62674 15.196 1.83461 16.6691C1.83461 16.6691 3.48575 19.8084 0 24.6735L0.862264 26.1422L0.220154 27.8679C0.220154 27.8679 3.15552 28.8592 4.14621 34.0731C4.14621 34.0731 6.65962 35.909 9.81514 38.0936C9.81514 38.0936 14.7135 36.68 16.9518 37.653C17.9735 37.265 18.8423 36.5566 19.4285 35.6336C19.8624 34.8464 20.0634 33.952 20.0082 33.0548C19.953 32.1575 19.6437 31.2945 19.1166 30.5666C18.887 30.2749 18.7747 29.9079 18.8019 29.5376C18.8291 29.1673 18.9937 28.8205 19.2634 28.5655C21.6553 26.1506 24.6328 24.3984 27.9044 23.4802C28.0847 23.4145 28.2766 23.3863 28.4683 23.3974C28.6599 23.4084 28.8473 23.4584 29.019 23.5443C29.1906 23.6302 29.343 23.7502 29.4668 23.897C29.5906 24.0438 29.6832 24.2143 29.739 24.3981C30.1218 25.2263 30.7322 25.9285 31.4988 26.4226C32.2655 26.9167 33.1568 27.1824 34.0686 27.1886C34.9763 27.1843 35.8635 26.919 36.6246 26.4242C37.3858 25.9295 37.9887 25.2262 38.3616 24.3981C38.5109 24.0538 38.7766 23.773 39.1121 23.6052C39.4475 23.4373 39.8314 23.3931 40.1962 23.4802C43.4348 24.3992 46.4007 26.0943 48.8372 28.4186C49.1147 28.669 49.2849 29.0168 49.3122 29.3897C49.3396 29.7625 49.222 30.1315 48.984 30.4197C48.4425 31.1448 48.1245 32.0123 48.0691 32.9158C48.0137 33.8192 48.2233 34.7192 48.6721 35.5051C49.1001 36.3306 49.7771 37.0002 50.607 37.4188C51.437 37.8373 52.3776 37.9835 53.2953 37.8366C53.6759 37.8121 54.0531 37.9217 54.3614 38.1464C54.6697 38.3711 54.8897 38.6966 54.9832 39.0667L55.1299 39.5991C55.5852 41.026 55.8444 42.5083 55.9005 44.0051C55.9238 45.7124 55.7265 47.4155 55.3134 49.0721C55.2376 49.4566 55.02 49.7984 54.7039 50.0297C54.3878 50.261 53.9963 50.3648 53.6072 50.3205C52.7083 50.248 51.8065 50.4216 50.9986 50.8226C50.1907 51.2236 49.507 51.8369 49.0207 52.597C48.5802 53.3821 48.3754 54.2777 48.4307 55.1765C48.486 56.0752 48.7991 56.9388 49.3326 57.664C49.574 57.9529 49.6952 58.3235 49.6713 58.6994C49.6474 59.0752 49.4802 59.4275 49.2041 59.6834C46.6907 62.0463 43.6638 63.7933 40.3613 64.7871H39.8843C39.5872 64.7888 39.2966 64.7001 39.051 64.533C38.8053 64.3658 38.6161 64.1279 38.5084 63.8508C38.1675 63.0915 37.6311 62.4364 36.9542 61.9526C36.2773 61.4687 35.4841 61.1735 34.6557 61.097C34.3618 62.4412 34.2263 63.8153 34.2521 65.191C34.2521 65.191 37.536 69.8358 37.536 71.4146C37.4121 72.5642 37.5345 73.727 37.8951 74.8256C38.2558 75.9241 38.8464 76.933 39.6275 77.785C40.1907 78.7938 40.6634 79.8505 41.0401 80.9427C41.199 81.027 41.3364 81.1467 41.4417 81.2925C41.547 81.4384 41.6175 81.6065 41.6476 81.7839C41.6777 81.9613 41.6668 82.1432 41.6155 82.3157C41.5643 82.4881 41.4741 82.6465 41.352 82.7786C41.3914 83.3394 41.6258 83.8687 42.0146 84.2745C42.4034 84.6803 42.9219 84.937 43.4802 85C45.0317 84.2523 46.7904 84.0518 48.4703 84.4309C51.2039 85.0734 54.3043 81.8607 55.717 79.4924L57.4415 78.2073C57.4415 78.2073 58.8542 76.3714 57.9919 75.123C58.1038 74.8341 58.287 74.5781 58.5244 74.3791C58.7617 74.1801 59.0456 74.0444 59.3495 73.9848C59.3495 73.9848 62.7252 73.9848 61.3676 69.0463C61.3676 69.0463 60.0834 68.1835 63.0004 66.8984C63.5262 66.5661 63.9512 66.0963 64.2296 65.5398C64.2296 65.5398 68.2474 64.677 68.6693 62.2536C68.6693 62.2536 68.6693 59.0959 68.6693 58.1596C68.6693 58.1596 69.8068 57.3702 67.9355 56.5808C67.9675 56.2237 67.92 55.8639 67.7962 55.5274C67.6725 55.1908 67.4757 54.886 67.22 54.6348C67.22 54.6348 68.651 53.0376 66.9815 52.1197C67.5558 49.7344 68.9607 47.6321 70.9442 46.1898C72.1641 44.279 74.0038 42.8464 76.1545 42.1325ZM78.5395 60.3076C78.5395 59.7752 79.2183 59.9037 79.2183 59.9037C80.8144 62.4739 79.7136 63.9977 79.5669 64.1996L79.255 63.4653C79.091 64.7609 78.6667 66.0099 78.0074 67.137C76.6315 70.6802 74.6685 74.9395 74.6685 74.9395C73.8202 75.0155 72.9994 75.2789 72.2651 75.7105C72.2651 75.4351 71.4212 74.9395 71.4212 74.9395C71.2164 74.6534 71.0842 74.3216 71.0363 73.973C70.9883 73.6243 71.026 73.2692 71.146 72.9384C70.9452 72.3857 70.892 71.7901 70.9917 71.2105C71.0915 70.6309 71.3407 70.0874 71.7148 69.6338C72.1006 69.0751 72.3499 68.4333 72.4423 67.7604C72.5347 67.0876 72.4677 66.4024 72.2468 65.7601C72.2431 65.3721 72.3807 64.9959 72.6339 64.702C72.8871 64.4081 73.2386 64.2164 73.6227 64.1629C74.6597 63.8852 75.6298 63.4004 76.4747 62.7379C77.3196 62.0754 78.022 61.2487 78.5395 60.3076Z" fill="#D9A528"/>
<path d="M52.6166 39.2134C52.5264 38.8971 52.3328 38.6202 52.0666 38.4271C51.8005 38.2341 51.4773 38.136 51.1489 38.1486C50.3498 38.2737 49.5316 38.1464 48.8082 37.7845C48.0848 37.4225 47.4922 36.8439 47.1127 36.1291C46.7258 35.4399 46.5475 34.6529 46.5997 33.8641C46.6518 33.0753 46.932 32.3186 47.4063 31.6864C47.5193 31.5572 47.6053 31.4067 47.6592 31.2437C47.7131 31.0807 47.7338 30.9086 47.7201 30.7374C47.7064 30.5663 47.6586 30.3996 47.5795 30.2473C47.5004 30.095 47.3916 29.96 47.2595 29.8505C45.136 27.8408 42.5634 26.368 39.756 25.5546C39.4348 25.4719 39.0945 25.5081 38.7979 25.6565C38.5012 25.8049 38.2682 26.0556 38.1415 26.3623C37.8212 27.0883 37.2969 27.7055 36.6324 28.1388C35.968 28.5721 35.192 28.8027 34.3989 28.8027C33.6059 28.8027 32.8299 28.5721 32.1654 28.1388C31.501 27.7055 30.9767 27.0883 30.6563 26.3623C30.6088 26.2016 30.5289 26.0523 30.4216 25.9236C30.3144 25.7949 30.1819 25.6895 30.0324 25.6138C29.883 25.5382 29.7196 25.4939 29.5525 25.4837C29.3853 25.4735 29.2178 25.4976 29.0602 25.5546C26.2191 26.3656 23.6348 27.8958 21.5567 29.9974C21.3127 30.2133 21.1612 30.5151 21.1339 30.8399C21.1066 31.1648 21.2054 31.4877 21.4099 31.7414C21.8778 32.3766 22.1541 33.1325 22.2061 33.9199C22.2581 34.7072 22.0837 35.493 21.7035 36.1842C21.2088 37.0154 20.4545 37.6605 19.557 38.0201C18.9737 38.2481 18.3468 38.3422 17.7224 38.2955C17.3853 38.247 17.0425 38.3308 16.7656 38.5292C16.4887 38.7276 16.2991 39.0253 16.2363 39.3603C15.8583 40.7661 15.6853 42.2192 15.7226 43.6746C15.6951 45.1657 15.8679 46.6539 16.2363 48.099C16.3109 48.4205 16.508 48.7001 16.7855 48.8784C17.0631 49.0567 17.3992 49.1196 17.7224 49.0536C18.5174 48.9197 19.3345 49.0412 20.0563 49.4007C20.7781 49.7602 21.3676 50.3392 21.7401 51.0547C22.1232 51.7419 22.2994 52.5253 22.2473 53.3104C22.1952 54.0955 21.9171 54.8487 21.4466 55.4792C21.2231 55.7422 21.113 56.0833 21.1405 56.4275C21.168 56.7717 21.3309 57.0909 21.5934 57.315C23.7544 59.3874 26.3765 60.9164 29.2437 61.7762C29.5624 61.8621 29.9017 61.8271 30.1962 61.678C30.4908 61.5289 30.72 61.2762 30.8398 60.9684C31.1593 60.2582 31.6738 59.6535 32.3233 59.2245C32.9729 58.7955 33.7309 58.5599 34.509 58.5451C34.6367 58.5251 34.7666 58.5251 34.8943 58.5451C35.6121 58.6116 36.2994 58.8676 36.8861 59.2869C37.4727 59.7062 37.9376 60.2738 38.2333 60.9317C38.3306 61.1688 38.4957 61.3718 38.7078 61.5155C38.9199 61.6591 39.1696 61.7371 39.4257 61.7395H39.8294C42.6895 60.8821 45.3094 59.3669 47.4797 57.315C47.7368 57.0858 47.8928 56.7639 47.9134 56.4199C47.9341 56.0758 47.8177 55.7376 47.5897 55.4792C47.1313 54.8423 46.8636 54.0879 46.8182 53.3043C46.7727 52.5208 46.9512 51.7404 47.3329 51.0547C47.7567 50.3832 48.3583 49.8423 49.0708 49.4923C49.7833 49.1423 50.5789 48.9968 51.369 49.072C51.71 49.1103 52.0528 49.0179 52.3285 48.8136C52.6041 48.6092 52.7923 48.308 52.8551 47.9705C53.2168 46.5241 53.3894 45.0369 53.3688 43.546C53.2975 42.0763 53.0448 40.6211 52.6166 39.2134ZM28.6566 48.613C28.5428 48.7485 28.3989 48.8556 28.2365 48.9257C28.0741 48.9958 27.8976 49.027 27.721 49.0169C27.5425 49.0207 27.3652 48.9867 27.2008 48.9171C27.0364 48.8475 26.8885 48.7439 26.767 48.613L22.7675 44.5741C22.5255 44.33 22.3897 44.0001 22.3897 43.6562C22.3897 43.3123 22.5255 42.9824 22.7675 42.7383L26.7853 38.6994C26.9243 38.5583 27.0953 38.4529 27.2838 38.3922C27.4722 38.3314 27.6726 38.3172 27.8677 38.3505C28.1664 38.3804 28.4485 38.5022 28.675 38.6994C28.7461 38.7707 28.8077 38.8509 28.8584 38.938C29.0321 39.1893 29.1091 39.4949 29.0754 39.7985C29.0417 40.1021 28.8995 40.3833 28.675 40.5903L25.6845 43.6562L28.7667 46.7405C28.8876 46.868 28.9812 47.019 29.0415 47.1842C29.1018 47.3493 29.1276 47.5251 29.1172 47.7006C29.1069 47.8761 29.0607 48.0477 28.9815 48.2046C28.9023 48.3616 28.7917 48.5006 28.6566 48.613ZM38.2883 38.8095L33.7935 47.8053L32.9312 49.6411C32.8359 49.8796 32.6713 50.084 32.4588 50.228C32.2462 50.372 31.9954 50.4489 31.7387 50.4489C31.4636 50.4489 31.3351 50.4489 31.2251 50.3204C31.064 50.2538 30.9195 50.1527 30.8017 50.0243C30.684 49.8958 30.5957 49.7431 30.5433 49.5768C30.4908 49.4106 30.4754 49.2349 30.4981 49.062C30.5208 48.8891 30.5811 48.7234 30.6747 48.5763L32.0323 45.8409L36.0501 37.8181C36.1121 37.6418 36.2153 37.4829 36.351 37.3545C36.4868 37.2261 36.6512 37.1319 36.8306 37.0799C37.01 37.0278 37.1992 37.0193 37.3825 37.0551C37.5659 37.0909 37.738 37.17 37.8847 37.2857C38.1141 37.4567 38.2789 37.7004 38.3522 37.9771C38.4255 38.2539 38.403 38.5473 38.2883 38.8095ZM46.0487 44.5741L42.0309 48.613C41.9125 48.7478 41.7652 48.8541 41.6 48.924C41.4348 48.994 41.256 49.0257 41.0769 49.0169C40.8986 49.0196 40.7216 48.985 40.5574 48.9155C40.3931 48.846 40.2452 48.743 40.1229 48.613C39.8852 48.3666 39.7524 48.0376 39.7524 47.6951C39.7524 47.3527 39.8852 47.0236 40.1229 46.7772L43.2234 43.6929L40.1229 40.5903C39.9505 40.3359 39.8721 40.0294 39.9012 39.7234C39.9302 39.4174 40.065 39.1311 40.2821 38.9138C40.4993 38.6965 40.7854 38.5616 41.0912 38.5326C41.397 38.5035 41.7033 38.5819 41.9575 38.7544L45.9753 42.7933C46.103 42.9016 46.2068 43.0353 46.2802 43.1857C46.3537 43.3362 46.3952 43.5003 46.4021 43.6676C46.409 43.835 46.3811 44.0019 46.3203 44.1579C46.2595 44.314 46.167 44.4557 46.0487 44.5741Z" fill="white"/>
</svg>
